<svg xmlns="http://www.w3.org/2000/svg" xmlns:xlink="http://www.w3.org/1999/xlink" width="500" zoomAndPan="magnify" viewBox="0 0 375 374.999991" height="500" preserveAspectRatio="xMidYMid meet" version="1.2"><defs><clipPath id="72fe2a7045"><path d="M 64.460938 64.460938 L 333.257812 64.460938 L 333.257812 333.257812 L 64.460938 333.257812 Z M 64.460938 64.460938 "/></clipPath><clipPath id="0f9196befd"><path d="M 41.742188 41.742188 L 317.980469 41.742188 L 317.980469 50.355469 L 41.742188 50.355469 Z M 309.183594 50.355469 L 317.980469 50.355469 L 317.980469 309.183594 L 309.183594 309.183594 Z M 41.742188 50.355469 L 50.355469 50.355469 L 50.355469 309.183594 L 41.742188 309.183594 Z M 41.742188 309.183594 L 317.980469 309.183594 L 317.980469 317.980469 L 41.742188 317.980469 Z M 41.742188 309.183594 "/></clipPath></defs><g id="a579c1b423"><g clip-rule="nonzero" clip-path="url(#72fe2a7045)"><path style=" stroke:none;fill-rule:nonzero;fill:#005eb8;fill-opacity:1;" d="M 64.460938 64.460938 L 333.257812 64.460938 L 333.257812 333.257812 L 64.460938 333.257812 Z M 64.460938 64.460938 "/></g><g clip-rule="nonzero" clip-path="url(#0f9196befd)"><path style=" stroke:none;fill-rule:nonzero;fill:#41b6e6;fill-opacity:1;" d="M 41.742188 41.742188 L 317.980469 41.742188 L 317.980469 317.980469 L 41.742188 317.980469 Z M 41.742188 41.742188 "/></g><g style="fill:#ffffff;fill-opacity:1;"><g transform="translate(85.581306, 128.505197)"><path style="stroke:none" d="M 3.828125 0 L 3.828125 -42.609375 L 36.578125 -42.609375 L 36.578125 -34.9375 L 12.65625 -34.9375 L 12.65625 -25.203125 L 28.421875 -25.203125 L 28.421875 -17.78125 L 12.65625 -17.78125 L 12.65625 -7.671875 L 36.828125 -7.671875 L 36.828125 0 Z M 3.828125 0 "/></g></g><g style="fill:#ffffff;fill-opacity:1;"><g transform="translate(125.214788, 128.505197)"><path style="stroke:none" d="M 17.046875 0 L -0.25 -42.609375 L 9.3125 -42.609375 L 22.34375 -8.953125 L 35.671875 -42.609375 L 44.796875 -42.609375 L 27.265625 0 Z M 17.046875 0 "/></g></g><g style="fill:#ffffff;fill-opacity:1;"><g transform="translate(170.144906, 128.505197)"><path style="stroke:none" d="M 3.828125 0 L 3.828125 -42.609375 L 36.578125 -42.609375 L 36.578125 -34.9375 L 12.65625 -34.9375 L 12.65625 -25.203125 L 28.421875 -25.203125 L 28.421875 -17.78125 L 12.65625 -17.78125 L 12.65625 -7.671875 L 36.828125 -7.671875 L 36.828125 0 Z M 3.828125 0 "/></g></g><g style="fill:#ffffff;fill-opacity:1;"><g transform="translate(209.778388, 128.505197)"><path style="stroke:none" d="M 3.828125 0 L 3.828125 -42.609375 L 24.65625 -42.609375 C 26.800781 -42.609375 28.773438 -42.285156 30.578125 -41.640625 C 32.390625 -40.992188 33.941406 -40.085938 35.234375 -38.921875 C 36.535156 -37.765625 37.550781 -36.375 38.28125 -34.75 C 39.019531 -33.132812 39.390625 -31.351562 39.390625 -29.40625 C 39.390625 -26.726562 38.628906 -24.332031 37.109375 -22.21875 C 35.585938 -20.101562 33.566406 -18.539062 31.046875 -17.53125 L 40.484375 0 L 30.625 0 L 22.28125 -16.3125 L 12.65625 -16.3125 L 12.65625 0 Z M 23.859375 -35 L 12.65625 -35 L 12.65625 -23.5625 L 23.859375 -23.5625 C 25.847656 -23.5625 27.441406 -24.085938 28.640625 -25.140625 C 29.835938 -26.191406 30.4375 -27.570312 30.4375 -29.28125 C 30.4375 -30.988281 29.835938 -32.367188 28.640625 -33.421875 C 27.441406 -34.472656 25.847656 -35 23.859375 -35 Z M 23.859375 -35 "/></g></g><g style="fill:#ffffff;fill-opacity:1;"><g transform="translate(251.48183, 128.505197)"><path style="stroke:none" d="M 17.046875 0 L 17.046875 -16.3125 L -0.359375 -42.609375 L 9.796875 -42.609375 L 21.734375 -24.109375 L 33.71875 -42.609375 L 43.34375 -42.609375 L 25.875 -16.25 L 25.875 0 Z M 17.046875 0 "/></g></g><g style="fill:#ffffff;fill-opacity:1;"><g transform="translate(85.581306, 183.087024)"><path style="stroke:none" d="M 1.09375 -34.828125 L 1.09375 -42.609375 L 38.59375 -42.609375 L 38.59375 -34.828125 L 24.296875 -34.828125 L 24.296875 0 L 15.46875 0 L 15.46875 -34.828125 Z M 1.09375 -34.828125 "/></g></g><g style="fill:#ffffff;fill-opacity:1;"><g transform="translate(125.64096, 183.087024)"><path style="stroke:none" d="M 3.828125 0 L 3.828125 -42.609375 L 12.65625 -42.609375 L 12.65625 -25.5 L 32.265625 -25.5 L 32.265625 -42.609375 L 41.09375 -42.609375 L 41.09375 0 L 32.265625 0 L 32.265625 -17.40625 L 12.65625 -17.40625 L 12.65625 0 Z M 3.828125 0 "/></g></g><g style="fill:#ffffff;fill-opacity:1;"><g transform="translate(170.99725, 183.087024)"><path style="stroke:none" d="M 3.828125 0 L 3.828125 -42.609375 L 12.65625 -42.609375 L 12.65625 0 Z M 3.828125 0 "/></g></g><g style="fill:#ffffff;fill-opacity:1;"><g transform="translate(187.922173, 183.087024)"><path style="stroke:none" d="M 3.828125 -42.609375 L 12.234375 -42.609375 L 33.421875 -15.03125 L 33.421875 -42.609375 L 41.703125 -42.609375 L 41.703125 0 L 33.90625 0 L 12.171875 -28.484375 L 12.171875 0 L 3.828125 0 Z M 3.828125 -42.609375 "/></g></g><g style="fill:#ffffff;fill-opacity:1;"><g transform="translate(233.887278, 183.087024)"><path style="stroke:none" d="M 46.140625 -21.25 C 46.140625 -18.125 45.601562 -15.210938 44.53125 -12.515625 C 43.457031 -9.816406 41.972656 -7.5 40.078125 -5.5625 C 38.191406 -3.632812 35.929688 -2.113281 33.296875 -1 C 30.660156 0.113281 27.820312 0.671875 24.78125 0.671875 C 21.613281 0.671875 18.648438 0.101562 15.890625 -1.03125 C 13.128906 -2.164062 10.742188 -3.71875 8.734375 -5.6875 C 6.722656 -7.65625 5.128906 -9.976562 3.953125 -12.65625 C 2.773438 -15.34375 2.1875 -18.226562 2.1875 -21.3125 C 2.1875 -24.394531 2.765625 -27.273438 3.921875 -29.953125 C 5.078125 -32.628906 6.660156 -34.953125 8.671875 -36.921875 C 10.679688 -38.890625 13.066406 -40.441406 15.828125 -41.578125 C 18.585938 -42.710938 21.53125 -43.28125 24.65625 -43.28125 C 28.1875 -43.28125 31.515625 -42.566406 34.640625 -41.140625 C 37.765625 -39.722656 40.34375 -37.78125 42.375 -35.3125 L 36.21875 -29.640625 C 34.71875 -31.429688 32.984375 -32.800781 31.015625 -33.75 C 29.046875 -34.707031 26.925781 -35.1875 24.65625 -35.1875 C 22.75 -35.1875 20.972656 -34.832031 19.328125 -34.125 C 17.679688 -33.414062 16.257812 -32.441406 15.0625 -31.203125 C 13.863281 -29.960938 12.929688 -28.5 12.265625 -26.8125 C 11.597656 -25.132812 11.265625 -23.300781 11.265625 -21.3125 C 11.265625 -19.320312 11.609375 -17.472656 12.296875 -15.765625 C 12.984375 -14.054688 13.9375 -12.582031 15.15625 -11.34375 C 16.375 -10.113281 17.820312 -9.140625 19.5 -8.421875 C 21.1875 -7.710938 22.984375 -7.359375 24.890625 -7.359375 C 27.898438 -7.359375 30.488281 -8.191406 32.65625 -9.859375 C 34.832031 -11.523438 36.179688 -13.65625 36.703125 -16.25 L 24.109375 -16.25 L 24.109375 -23.921875 L 46.140625 -23.921875 Z M 46.140625 -21.25 "/></g></g><g style="fill:#ffffff;fill-opacity:1;"><g transform="translate(83.158468, 278.328551)"><path style="stroke:none" d="M -0.40625 0 L 28.4375 -70.109375 L 45.265625 -70.109375 L 73.71875 0 L 57.984375 0 L 50.875 -18.421875 L 21.9375 -18.421875 L 14.71875 0 Z M 26.4375 -30.046875 L 46.46875 -30.046875 L 36.5625 -55.890625 Z M 26.4375 -30.046875 "/></g></g><g style="fill:#ffffff;fill-opacity:1;"><g transform="translate(157.073877, 278.328551)"><path style="stroke:none" d="M 6.3125 0 L 6.3125 -70.109375 L 41.46875 -70.109375 C 44.875 -70.109375 48.023438 -69.554688 50.921875 -68.453125 C 53.828125 -67.347656 56.316406 -65.828125 58.390625 -63.890625 C 60.460938 -61.960938 62.082031 -59.644531 63.25 -56.9375 C 64.414062 -54.226562 65 -51.273438 65 -48.078125 C 65 -44.941406 64.414062 -42.050781 63.25 -39.40625 C 62.082031 -36.769531 60.445312 -34.484375 58.34375 -32.546875 C 56.238281 -30.609375 53.75 -29.101562 50.875 -28.03125 C 48.007812 -26.96875 44.875 -26.4375 41.46875 -26.4375 L 20.828125 -26.4375 L 20.828125 0 Z M 39.859375 -57.59375 L 20.828125 -57.59375 L 20.828125 -38.453125 L 39.859375 -38.453125 C 42.992188 -38.453125 45.515625 -39.320312 47.421875 -41.0625 C 49.328125 -42.800781 50.28125 -45.101562 50.28125 -47.96875 C 50.28125 -50.84375 49.328125 -53.164062 47.421875 -54.9375 C 45.515625 -56.707031 42.992188 -57.59375 39.859375 -57.59375 Z M 39.859375 -57.59375 "/></g></g><g style="fill:#ffffff;fill-opacity:1;"><g transform="translate(225.881324, 278.328551)"><path style="stroke:none" d="M 6.3125 0 L 6.3125 -70.109375 L 41.46875 -70.109375 C 44.875 -70.109375 48.023438 -69.554688 50.921875 -68.453125 C 53.828125 -67.347656 56.316406 -65.828125 58.390625 -63.890625 C 60.460938 -61.960938 62.082031 -59.644531 63.25 -56.9375 C 64.414062 -54.226562 65 -51.273438 65 -48.078125 C 65 -44.941406 64.414062 -42.050781 63.25 -39.40625 C 62.082031 -36.769531 60.445312 -34.484375 58.34375 -32.546875 C 56.238281 -30.609375 53.75 -29.101562 50.875 -28.03125 C 48.007812 -26.96875 44.875 -26.4375 41.46875 -26.4375 L 20.828125 -26.4375 L 20.828125 0 Z M 39.859375 -57.59375 L 20.828125 -57.59375 L 20.828125 -38.453125 L 39.859375 -38.453125 C 42.992188 -38.453125 45.515625 -39.320312 47.421875 -41.0625 C 49.328125 -42.800781 50.28125 -45.101562 50.28125 -47.96875 C 50.28125 -50.84375 49.328125 -53.164062 47.421875 -54.9375 C 45.515625 -56.707031 42.992188 -57.59375 39.859375 -57.59375 Z M 39.859375 -57.59375 "/></g></g></g></svg>