<svg xmlns="http://www.w3.org/2000/svg" xmlns:xlink="http://www.w3.org/1999/xlink" width="200" zoomAndPan="magnify" viewBox="0 0 150 112.499997" height="150" preserveAspectRatio="xMidYMid meet" version="1.2"><defs><clipPath id="f7e0b49b1e"><path d="M 7 29 L 149.667969 29 L 149.667969 108 L 7 108 Z M 7 29 "/></clipPath><clipPath id="2d1b062add"><rect x="0" width="143" y="0" height="79"/></clipPath><clipPath id="644db2075f"><path d="M 108.34375 11.199219 L 141.992188 11.199219 L 141.992188 40.601562 L 108.34375 40.601562 Z M 108.34375 11.199219 "/></clipPath><clipPath id="2d7afd9202"><path d="M 125.144531 40.601562 L 141.945312 11.199219 L 108.34375 11.199219 Z M 125.144531 40.601562 "/></clipPath><clipPath id="257aad7c88"><path d="M 0.34375 0.199219 L 33.992188 0.199219 L 33.992188 29.601562 L 0.34375 29.601562 Z M 0.34375 0.199219 "/></clipPath><clipPath id="12fba6aa9c"><path d="M 17.144531 29.601562 L 33.945312 0.199219 L 0.34375 0.199219 Z M 17.144531 29.601562 "/></clipPath><clipPath id="ef21868fd8"><rect x="0" width="34" y="0" height="30"/></clipPath></defs><g id="314759d78c"><g clip-rule="nonzero" clip-path="url(#f7e0b49b1e)"><g transform="matrix(1,0,0,1,7,29)"><g clip-path="url(#2d1b062add)"><g style="fill:#ffffff;fill-opacity:1;"><g transform="translate(1.055862, 46.897056)"><path style="stroke:none" d="M 19.25 0.640625 C 16.289062 0.640625 13.632812 -0.03125 11.28125 -1.375 C 8.925781 -2.726562 7.066406 -4.71875 5.703125 -7.34375 C 4.347656 -9.96875 3.671875 -13.101562 3.671875 -16.75 C 3.671875 -20.414062 4.347656 -23.5625 5.703125 -26.1875 C 7.066406 -28.8125 8.925781 -30.796875 11.28125 -32.140625 C 13.632812 -33.492188 16.289062 -34.171875 19.25 -34.171875 C 22.789062 -34.171875 25.609375 -33.5 27.703125 -32.15625 C 29.804688 -30.820312 31.320312 -29.039062 32.25 -26.8125 L 28.890625 -24.390625 L 28.28125 -24.390625 C 27.363281 -26.234375 26.191406 -27.582031 24.765625 -28.4375 C 23.335938 -29.300781 21.5 -29.734375 19.25 -29.734375 C 17.175781 -29.734375 15.359375 -29.242188 13.796875 -28.265625 C 12.242188 -27.296875 11.035156 -25.835938 10.171875 -23.890625 C 9.304688 -21.953125 8.875 -19.570312 8.875 -16.75 C 8.875 -13.957031 9.3125 -11.59375 10.1875 -9.65625 C 11.0625 -7.71875 12.269531 -6.253906 13.8125 -5.265625 C 15.363281 -4.285156 17.175781 -3.796875 19.25 -3.796875 C 21.570312 -3.796875 23.5 -4.320312 25.03125 -5.375 C 26.5625 -6.4375 27.765625 -8.101562 28.640625 -10.375 L 29.28125 -10.375 L 32.53125 -8.453125 C 31.65625 -5.628906 30.097656 -3.40625 27.859375 -1.78125 C 25.617188 -0.164062 22.75 0.640625 19.25 0.640625 Z M 19.25 0.640625 "/></g><g transform="translate(35.622384, 46.897056)"><path style="stroke:none" d="M 19.25 0.640625 C 16.082031 0.640625 13.328125 -0.0234375 10.984375 -1.359375 C 8.648438 -2.703125 6.847656 -4.675781 5.578125 -7.28125 C 4.304688 -9.882812 3.671875 -13.039062 3.671875 -16.75 C 3.671875 -20.457031 4.304688 -23.617188 5.578125 -26.234375 C 6.847656 -28.847656 8.648438 -30.820312 10.984375 -32.15625 C 13.328125 -33.5 16.082031 -34.171875 19.25 -34.171875 C 22.40625 -34.171875 25.15625 -33.5 27.5 -32.15625 C 29.84375 -30.820312 31.644531 -28.847656 32.90625 -26.234375 C 34.175781 -23.617188 34.8125 -20.457031 34.8125 -16.75 C 34.8125 -13.039062 34.175781 -9.882812 32.90625 -7.28125 C 31.644531 -4.675781 29.84375 -2.703125 27.5 -1.359375 C 25.15625 -0.0234375 22.40625 0.640625 19.25 0.640625 Z M 19.25 -3.796875 C 22.59375 -3.796875 25.148438 -4.847656 26.921875 -6.953125 C 28.691406 -9.066406 29.578125 -12.332031 29.578125 -16.75 C 29.578125 -21.1875 28.691406 -24.457031 26.921875 -26.5625 C 25.148438 -28.675781 22.59375 -29.734375 19.25 -29.734375 C 15.90625 -29.734375 13.335938 -28.671875 11.546875 -26.546875 C 9.765625 -24.429688 8.875 -21.164062 8.875 -16.75 C 8.875 -12.332031 9.765625 -9.066406 11.546875 -6.953125 C 13.335938 -4.847656 15.90625 -3.796875 19.25 -3.796875 Z M 19.25 -3.796875 "/></g><g transform="translate(74.110702, 46.897056)"><path style="stroke:none" d="M 5.84375 0 L 5.84375 -33.53125 L 10.546875 -33.53125 L 10.546875 -28.28125 L 11.1875 -28.125 C 12.75 -31.9375 15.6875 -33.84375 20 -33.84375 C 22.289062 -33.84375 24.003906 -33.425781 25.140625 -32.59375 L 23.859375 -28.390625 L 23.265625 -28.28125 C 22.003906 -28.90625 20.625 -29.21875 19.125 -29.21875 C 16.445312 -29.21875 14.390625 -28.210938 12.953125 -26.203125 C 11.515625 -24.203125 10.796875 -20.953125 10.796875 -16.453125 L 10.796875 0 Z M 5.84375 0 "/></g></g><g style="fill:#ffffff;fill-opacity:1;"><g transform="translate(99.131149, 46.897056)"><path style="stroke:none" d="M 31.953125 -15.625 L 8.90625 -15.625 C 9.050781 -11.550781 10.03125 -8.5625 11.84375 -6.65625 C 13.65625 -4.75 16.144531 -3.796875 19.3125 -3.796875 C 21.695312 -3.796875 23.617188 -4.222656 25.078125 -5.078125 C 26.535156 -5.929688 27.679688 -7.269531 28.515625 -9.09375 L 29.15625 -9.09375 L 32.375 -7.171875 C 31.40625 -4.742188 29.847656 -2.832031 27.703125 -1.4375 C 25.566406 -0.0507812 22.769531 0.640625 19.3125 0.640625 C 16.0625 0.640625 13.269531 0.00390625 10.9375 -1.265625 C 8.613281 -2.546875 6.820312 -4.484375 5.5625 -7.078125 C 4.300781 -9.671875 3.671875 -12.894531 3.671875 -16.75 C 3.671875 -20.5625 4.332031 -23.773438 5.65625 -26.390625 C 6.988281 -29.003906 8.804688 -30.953125 11.109375 -32.234375 C 13.410156 -33.523438 16.039062 -34.171875 19 -34.171875 C 23.300781 -34.171875 26.65625 -32.957031 29.0625 -30.53125 C 31.476562 -28.113281 32.695312 -24.523438 32.71875 -19.765625 C 32.71875 -17.898438 32.675781 -16.640625 32.59375 -15.984375 Z M 27.8125 -19.765625 C 27.738281 -23.328125 26.953125 -25.921875 25.453125 -27.546875 C 23.953125 -29.171875 21.800781 -29.984375 19 -29.984375 C 16.0625 -29.984375 13.753906 -29.164062 12.078125 -27.53125 C 10.410156 -25.894531 9.394531 -23.304688 9.03125 -19.765625 Z M 27.8125 -19.765625 "/></g></g></g></g></g><g clip-rule="nonzero" clip-path="url(#644db2075f)"><g clip-rule="nonzero" clip-path="url(#2d7afd9202)"><g transform="matrix(1,0,0,1,108,11)"><g clip-path="url(#ef21868fd8)"><g clip-rule="nonzero" clip-path="url(#257aad7c88)"><g clip-rule="nonzero" clip-path="url(#12fba6aa9c)"><path style=" stroke:none;fill-rule:nonzero;fill:#1d79bf;fill-opacity:1;" d="M 0.34375 0.199219 L 33.992188 0.199219 L 33.992188 29.601562 L 0.34375 29.601562 Z M 0.34375 0.199219 "/></g></g></g></g></g></g></g></svg>