<svg xmlns="http://www.w3.org/2000/svg" xmlns:xlink="http://www.w3.org/1999/xlink" width="300" zoomAndPan="magnify" viewBox="0 0 224.87999 112.499997" height="150" preserveAspectRatio="xMidYMid meet" version="1.0"><defs><g/><clipPath id="ecc2dce018"><path d="M 2.125 35.242188 L 47.640625 35.242188 L 47.640625 80.753906 L 2.125 80.753906 Z M 2.125 35.242188 " clip-rule="nonzero"/></clipPath><clipPath id="a0a2977b80"><path d="M 24.882812 35.242188 C 12.316406 35.242188 2.125 45.429688 2.125 58 C 2.125 70.566406 12.316406 80.753906 24.882812 80.753906 C 37.453125 80.753906 47.640625 70.566406 47.640625 58 C 47.640625 45.429688 37.453125 35.242188 24.882812 35.242188 Z M 24.882812 35.242188 " clip-rule="nonzero"/></clipPath><clipPath id="8baff81320"><path d="M 0.125 0.242188 L 45.640625 0.242188 L 45.640625 45.753906 L 0.125 45.753906 Z M 0.125 0.242188 " clip-rule="nonzero"/></clipPath><clipPath id="8ad878ca7f"><path d="M 22.882812 0.242188 C 10.316406 0.242188 0.125 10.429688 0.125 23 C 0.125 35.566406 10.316406 45.753906 22.882812 45.753906 C 35.453125 45.753906 45.640625 35.566406 45.640625 23 C 45.640625 10.429688 35.453125 0.242188 22.882812 0.242188 Z M 22.882812 0.242188 " clip-rule="nonzero"/></clipPath><linearGradient x1="0" gradientTransform="matrix(0.177787, 0, 0, 0.177787, 0.126921, 0.241931)" y1="128" x2="256" gradientUnits="userSpaceOnUse" y2="128" id="24be6202b7"><stop stop-opacity="1" stop-color="rgb(5.099487%, 10.5896%, 29.798889%)" offset="0"/><stop stop-opacity="1" stop-color="rgb(5.206299%, 10.606384%, 29.927063%)" offset="0.0078125"/><stop stop-opacity="1" stop-color="rgb(5.419922%, 10.639954%, 30.184937%)" offset="0.015625"/><stop stop-opacity="1" stop-color="rgb(5.635071%, 10.673523%, 30.44281%)" offset="0.0234375"/><stop stop-opacity="1" stop-color="rgb(5.848694%, 10.707092%, 30.699158%)" offset="0.03125"/><stop stop-opacity="1" stop-color="rgb(6.063843%, 10.740662%, 30.957031%)" offset="0.0390625"/><stop stop-opacity="1" stop-color="rgb(6.278992%, 10.774231%, 31.214905%)" offset="0.046875"/><stop stop-opacity="1" stop-color="rgb(6.492615%, 10.8078%, 31.471252%)" offset="0.0546875"/><stop stop-opacity="1" stop-color="rgb(6.707764%, 10.84137%, 31.729126%)" offset="0.0625"/><stop stop-opacity="1" stop-color="rgb(6.921387%, 10.874939%, 31.987%)" offset="0.0703125"/><stop stop-opacity="1" stop-color="rgb(7.136536%, 10.908508%, 32.244873%)" offset="0.078125"/><stop stop-opacity="1" stop-color="rgb(7.350159%, 10.942078%, 32.501221%)" offset="0.0859375"/><stop stop-opacity="1" stop-color="rgb(7.565308%, 10.977173%, 32.759094%)" offset="0.09375"/><stop stop-opacity="1" stop-color="rgb(7.778931%, 11.010742%, 33.016968%)" offset="0.101562"/><stop stop-opacity="1" stop-color="rgb(7.99408%, 11.044312%, 33.273315%)" offset="0.109375"/><stop stop-opacity="1" stop-color="rgb(8.207703%, 11.077881%, 33.531189%)" offset="0.117188"/><stop stop-opacity="1" stop-color="rgb(8.422852%, 11.11145%, 33.789062%)" offset="0.125"/><stop stop-opacity="1" stop-color="rgb(8.638%, 11.14502%, 34.04541%)" offset="0.132812"/><stop stop-opacity="1" stop-color="rgb(8.851624%, 11.178589%, 34.303284%)" offset="0.140625"/><stop stop-opacity="1" stop-color="rgb(9.066772%, 11.212158%, 34.561157%)" offset="0.148437"/><stop stop-opacity="1" stop-color="rgb(9.280396%, 11.245728%, 34.819031%)" offset="0.15625"/><stop stop-opacity="1" stop-color="rgb(9.495544%, 11.279297%, 35.075378%)" offset="0.164062"/><stop stop-opacity="1" stop-color="rgb(9.709167%, 11.312866%, 35.333252%)" offset="0.171875"/><stop stop-opacity="1" stop-color="rgb(9.924316%, 11.346436%, 35.591125%)" offset="0.179688"/><stop stop-opacity="1" stop-color="rgb(10.137939%, 11.380005%, 35.847473%)" offset="0.1875"/><stop stop-opacity="1" stop-color="rgb(10.353088%, 11.413574%, 36.105347%)" offset="0.195312"/><stop stop-opacity="1" stop-color="rgb(10.566711%, 11.447144%, 36.36322%)" offset="0.203125"/><stop stop-opacity="1" stop-color="rgb(10.78186%, 11.482239%, 36.621094%)" offset="0.210938"/><stop stop-opacity="1" stop-color="rgb(10.997009%, 11.515808%, 36.877441%)" offset="0.21875"/><stop stop-opacity="1" stop-color="rgb(11.210632%, 11.549377%, 37.135315%)" offset="0.226563"/><stop stop-opacity="1" stop-color="rgb(11.425781%, 11.582947%, 37.393188%)" offset="0.234375"/><stop stop-opacity="1" stop-color="rgb(11.639404%, 11.616516%, 37.649536%)" offset="0.242188"/><stop stop-opacity="1" stop-color="rgb(11.854553%, 11.650085%, 37.90741%)" offset="0.25"/><stop stop-opacity="1" stop-color="rgb(12.068176%, 11.683655%, 38.165283%)" offset="0.257812"/><stop stop-opacity="1" stop-color="rgb(12.283325%, 11.717224%, 38.421631%)" offset="0.265625"/><stop stop-opacity="1" stop-color="rgb(12.496948%, 11.750793%, 38.679504%)" offset="0.273438"/><stop stop-opacity="1" stop-color="rgb(12.712097%, 11.784363%, 38.937378%)" offset="0.28125"/><stop stop-opacity="1" stop-color="rgb(12.92572%, 11.817932%, 39.195251%)" offset="0.289062"/><stop stop-opacity="1" stop-color="rgb(13.140869%, 11.851501%, 39.451599%)" offset="0.296875"/><stop stop-opacity="1" stop-color="rgb(13.356018%, 11.885071%, 39.709473%)" offset="0.304687"/><stop stop-opacity="1" stop-color="rgb(13.569641%, 11.91864%, 39.967346%)" offset="0.3125"/><stop stop-opacity="1" stop-color="rgb(13.78479%, 11.952209%, 40.223694%)" offset="0.320312"/><stop stop-opacity="1" stop-color="rgb(13.998413%, 11.987305%, 40.481567%)" offset="0.328125"/><stop stop-opacity="1" stop-color="rgb(14.213562%, 12.020874%, 40.739441%)" offset="0.335938"/><stop stop-opacity="1" stop-color="rgb(14.427185%, 12.054443%, 40.995789%)" offset="0.34375"/><stop stop-opacity="1" stop-color="rgb(14.642334%, 12.088013%, 41.253662%)" offset="0.351562"/><stop stop-opacity="1" stop-color="rgb(14.855957%, 12.121582%, 41.511536%)" offset="0.359375"/><stop stop-opacity="1" stop-color="rgb(15.071106%, 12.155151%, 41.769409%)" offset="0.367188"/><stop stop-opacity="1" stop-color="rgb(15.284729%, 12.188721%, 42.025757%)" offset="0.375"/><stop stop-opacity="1" stop-color="rgb(15.499878%, 12.22229%, 42.28363%)" offset="0.382812"/><stop stop-opacity="1" stop-color="rgb(15.713501%, 12.255859%, 42.541504%)" offset="0.390625"/><stop stop-opacity="1" stop-color="rgb(15.92865%, 12.289429%, 42.797852%)" offset="0.398438"/><stop stop-opacity="1" stop-color="rgb(16.143799%, 12.322998%, 43.055725%)" offset="0.40625"/><stop stop-opacity="1" stop-color="rgb(16.357422%, 12.356567%, 43.313599%)" offset="0.414062"/><stop stop-opacity="1" stop-color="rgb(16.572571%, 12.390137%, 43.571472%)" offset="0.421875"/><stop stop-opacity="1" stop-color="rgb(16.786194%, 12.423706%, 43.82782%)" offset="0.429688"/><stop stop-opacity="1" stop-color="rgb(17.001343%, 12.457275%, 44.085693%)" offset="0.4375"/><stop stop-opacity="1" stop-color="rgb(17.214966%, 12.492371%, 44.343567%)" offset="0.445313"/><stop stop-opacity="1" stop-color="rgb(17.430115%, 12.52594%, 44.599915%)" offset="0.453125"/><stop stop-opacity="1" stop-color="rgb(17.643738%, 12.559509%, 44.857788%)" offset="0.460938"/><stop stop-opacity="1" stop-color="rgb(17.858887%, 12.593079%, 45.115662%)" offset="0.46875"/><stop stop-opacity="1" stop-color="rgb(18.07251%, 12.626648%, 45.372009%)" offset="0.476562"/><stop stop-opacity="1" stop-color="rgb(18.287659%, 12.660217%, 45.629883%)" offset="0.484375"/><stop stop-opacity="1" stop-color="rgb(18.502808%, 12.693787%, 45.887756%)" offset="0.492188"/><stop stop-opacity="1" stop-color="rgb(18.716431%, 12.727356%, 46.14563%)" offset="0.5"/><stop stop-opacity="1" stop-color="rgb(18.93158%, 12.760925%, 46.401978%)" offset="0.507812"/><stop stop-opacity="1" stop-color="rgb(19.145203%, 12.794495%, 46.659851%)" offset="0.515625"/><stop stop-opacity="1" stop-color="rgb(19.360352%, 12.828064%, 46.917725%)" offset="0.523438"/><stop stop-opacity="1" stop-color="rgb(19.573975%, 12.861633%, 47.174072%)" offset="0.53125"/><stop stop-opacity="1" stop-color="rgb(19.789124%, 12.895203%, 47.431946%)" offset="0.539062"/><stop stop-opacity="1" stop-color="rgb(20.002747%, 12.928772%, 47.689819%)" offset="0.546875"/><stop stop-opacity="1" stop-color="rgb(20.217896%, 12.962341%, 47.947693%)" offset="0.554688"/><stop stop-opacity="1" stop-color="rgb(20.431519%, 12.997437%, 48.204041%)" offset="0.5625"/><stop stop-opacity="1" stop-color="rgb(20.646667%, 13.031006%, 48.461914%)" offset="0.570312"/><stop stop-opacity="1" stop-color="rgb(20.861816%, 13.064575%, 48.719788%)" offset="0.578125"/><stop stop-opacity="1" stop-color="rgb(21.075439%, 13.098145%, 48.976135%)" offset="0.585937"/><stop stop-opacity="1" stop-color="rgb(21.290588%, 13.131714%, 49.234009%)" offset="0.59375"/><stop stop-opacity="1" stop-color="rgb(21.504211%, 13.165283%, 49.491882%)" offset="0.601562"/><stop stop-opacity="1" stop-color="rgb(21.71936%, 13.198853%, 49.74823%)" offset="0.609375"/><stop stop-opacity="1" stop-color="rgb(21.932983%, 13.232422%, 50.006104%)" offset="0.617187"/><stop stop-opacity="1" stop-color="rgb(22.148132%, 13.265991%, 50.263977%)" offset="0.625"/><stop stop-opacity="1" stop-color="rgb(22.361755%, 13.299561%, 50.521851%)" offset="0.632812"/><stop stop-opacity="1" stop-color="rgb(22.576904%, 13.33313%, 50.778198%)" offset="0.640625"/><stop stop-opacity="1" stop-color="rgb(22.790527%, 13.366699%, 51.036072%)" offset="0.648438"/><stop stop-opacity="1" stop-color="rgb(23.005676%, 13.400269%, 51.293945%)" offset="0.65625"/><stop stop-opacity="1" stop-color="rgb(23.220825%, 13.433838%, 51.550293%)" offset="0.664062"/><stop stop-opacity="1" stop-color="rgb(23.434448%, 13.467407%, 51.808167%)" offset="0.671875"/><stop stop-opacity="1" stop-color="rgb(23.649597%, 13.502502%, 52.06604%)" offset="0.679688"/><stop stop-opacity="1" stop-color="rgb(23.86322%, 13.536072%, 52.322388%)" offset="0.6875"/><stop stop-opacity="1" stop-color="rgb(24.078369%, 13.569641%, 52.580261%)" offset="0.695312"/><stop stop-opacity="1" stop-color="rgb(24.291992%, 13.60321%, 52.838135%)" offset="0.703125"/><stop stop-opacity="1" stop-color="rgb(24.507141%, 13.63678%, 53.096008%)" offset="0.710938"/><stop stop-opacity="1" stop-color="rgb(24.720764%, 13.670349%, 53.352356%)" offset="0.71875"/><stop stop-opacity="1" stop-color="rgb(24.935913%, 13.703918%, 53.610229%)" offset="0.726563"/><stop stop-opacity="1" stop-color="rgb(25.149536%, 13.737488%, 53.868103%)" offset="0.734375"/><stop stop-opacity="1" stop-color="rgb(25.364685%, 13.771057%, 54.124451%)" offset="0.742188"/><stop stop-opacity="1" stop-color="rgb(25.579834%, 13.804626%, 54.382324%)" offset="0.75"/><stop stop-opacity="1" stop-color="rgb(25.793457%, 13.838196%, 54.640198%)" offset="0.757812"/><stop stop-opacity="1" stop-color="rgb(26.008606%, 13.871765%, 54.898071%)" offset="0.765625"/><stop stop-opacity="1" stop-color="rgb(26.222229%, 13.905334%, 55.154419%)" offset="0.773437"/><stop stop-opacity="1" stop-color="rgb(26.437378%, 13.938904%, 55.412292%)" offset="0.78125"/><stop stop-opacity="1" stop-color="rgb(26.651001%, 13.972473%, 55.670166%)" offset="0.789062"/><stop stop-opacity="1" stop-color="rgb(26.86615%, 14.007568%, 55.926514%)" offset="0.796875"/><stop stop-opacity="1" stop-color="rgb(27.079773%, 14.041138%, 56.184387%)" offset="0.804688"/><stop stop-opacity="1" stop-color="rgb(27.294922%, 14.074707%, 56.442261%)" offset="0.8125"/><stop stop-opacity="1" stop-color="rgb(27.508545%, 14.108276%, 56.698608%)" offset="0.820312"/><stop stop-opacity="1" stop-color="rgb(27.723694%, 14.141846%, 56.956482%)" offset="0.828125"/><stop stop-opacity="1" stop-color="rgb(27.937317%, 14.175415%, 57.214355%)" offset="0.835938"/><stop stop-opacity="1" stop-color="rgb(28.152466%, 14.208984%, 57.472229%)" offset="0.84375"/><stop stop-opacity="1" stop-color="rgb(28.367615%, 14.242554%, 57.728577%)" offset="0.851562"/><stop stop-opacity="1" stop-color="rgb(28.581238%, 14.276123%, 57.98645%)" offset="0.859375"/><stop stop-opacity="1" stop-color="rgb(28.796387%, 14.309692%, 58.244324%)" offset="0.867188"/><stop stop-opacity="1" stop-color="rgb(29.01001%, 14.343262%, 58.500671%)" offset="0.875"/><stop stop-opacity="1" stop-color="rgb(29.225159%, 14.376831%, 58.758545%)" offset="0.882813"/><stop stop-opacity="1" stop-color="rgb(29.438782%, 14.4104%, 59.016418%)" offset="0.890625"/><stop stop-opacity="1" stop-color="rgb(29.653931%, 14.44397%, 59.272766%)" offset="0.898438"/><stop stop-opacity="1" stop-color="rgb(29.867554%, 14.477539%, 59.53064%)" offset="0.90625"/><stop stop-opacity="1" stop-color="rgb(30.082703%, 14.512634%, 59.788513%)" offset="0.914063"/><stop stop-opacity="1" stop-color="rgb(30.296326%, 14.546204%, 60.046387%)" offset="0.921875"/><stop stop-opacity="1" stop-color="rgb(30.511475%, 14.579773%, 60.302734%)" offset="0.929688"/><stop stop-opacity="1" stop-color="rgb(30.726624%, 14.613342%, 60.560608%)" offset="0.9375"/><stop stop-opacity="1" stop-color="rgb(30.940247%, 14.646912%, 60.818481%)" offset="0.945312"/><stop stop-opacity="1" stop-color="rgb(31.155396%, 14.680481%, 61.074829%)" offset="0.953125"/><stop stop-opacity="1" stop-color="rgb(31.369019%, 14.71405%, 61.332703%)" offset="0.960938"/><stop stop-opacity="1" stop-color="rgb(31.584167%, 14.74762%, 61.590576%)" offset="0.96875"/><stop stop-opacity="1" stop-color="rgb(31.797791%, 14.781189%, 61.84845%)" offset="0.976562"/><stop stop-opacity="1" stop-color="rgb(32.012939%, 14.814758%, 62.104797%)" offset="0.984375"/><stop stop-opacity="1" stop-color="rgb(32.226562%, 14.848328%, 62.362671%)" offset="0.992188"/><stop stop-opacity="1" stop-color="rgb(32.441711%, 14.881897%, 62.620544%)" offset="1"/></linearGradient><clipPath id="5bbc9adef9"><rect x="0" width="46" y="0" height="46"/></clipPath><clipPath id="8148430cd7"><rect x="0" width="170" y="0" height="76"/></clipPath></defs><g clip-path="url(#ecc2dce018)"><g clip-path="url(#a0a2977b80)"><g transform="matrix(1, 0, 0, 1, 2, 35)"><g clip-path="url(#5bbc9adef9)"><g clip-path="url(#8baff81320)"><g clip-path="url(#8ad878ca7f)"><path fill="url(#24be6202b7)" d="M 0.125 0.242188 L 0.125 45.753906 L 45.640625 45.753906 L 45.640625 0.242188 Z M 0.125 0.242188 " fill-rule="nonzero"/></g></g></g></g></g></g><g transform="matrix(1, 0, 0, 1, 53, 12)"><g clip-path="url(#8148430cd7)"><g fill="#000000" fill-opacity="1"><g transform="translate(1.300801, 57.421664)"><g><path d="M 15.234375 -8.96875 C 13.628906 -8.96875 12.15625 -9.179688 10.8125 -9.609375 L 7.9375 -6.90625 C 8.351562 -6.59375 8.878906 -6.332031 9.515625 -6.125 C 10.148438 -5.914062 11.0625 -5.722656 12.25 -5.546875 C 13.4375 -5.378906 15.101562 -5.195312 17.25 -5 C 21.082031 -4.726562 23.820312 -3.84375 25.46875 -2.34375 C 27.113281 -0.851562 27.9375 1.09375 27.9375 3.5 C 27.9375 5.15625 27.488281 6.726562 26.59375 8.21875 C 25.695312 9.71875 24.316406 10.945312 22.453125 11.90625 C 20.597656 12.863281 18.210938 13.34375 15.296875 13.34375 C 12.722656 13.34375 10.441406 13.003906 8.453125 12.328125 C 6.460938 11.660156 4.910156 10.644531 3.796875 9.28125 C 2.679688 7.925781 2.125 6.210938 2.125 4.140625 C 2.125 3.066406 2.410156 1.90625 2.984375 0.65625 C 3.566406 -0.582031 4.640625 -1.757812 6.203125 -2.875 C 5.359375 -3.21875 4.640625 -3.585938 4.046875 -3.984375 C 3.453125 -4.390625 2.910156 -4.84375 2.421875 -5.34375 L 2.421875 -6.671875 L 7.296875 -11.5 C 5.035156 -13.414062 3.90625 -15.945312 3.90625 -19.09375 C 3.90625 -20.96875 4.347656 -22.671875 5.234375 -24.203125 C 6.117188 -25.734375 7.398438 -26.945312 9.078125 -27.84375 C 10.765625 -28.75 12.816406 -29.203125 15.234375 -29.203125 C 16.878906 -29.203125 18.375 -28.972656 19.71875 -28.515625 L 30.25 -28.515625 L 30.25 -24.890625 L 24.890625 -24.671875 C 26.003906 -23.054688 26.5625 -21.195312 26.5625 -19.09375 C 26.5625 -17.207031 26.109375 -15.5 25.203125 -13.96875 C 24.304688 -12.4375 23.023438 -11.21875 21.359375 -10.3125 C 19.691406 -9.414062 17.648438 -8.96875 15.234375 -8.96875 Z M 15.234375 -12.9375 C 17.265625 -12.9375 18.882812 -13.460938 20.09375 -14.515625 C 21.300781 -15.566406 21.90625 -17.09375 21.90625 -19.09375 C 21.90625 -21.039062 21.300781 -22.539062 20.09375 -23.59375 C 18.882812 -24.65625 17.265625 -25.1875 15.234375 -25.1875 C 13.160156 -25.1875 11.519531 -24.65625 10.3125 -23.59375 C 9.113281 -22.539062 8.515625 -21.039062 8.515625 -19.09375 C 8.515625 -17.09375 9.113281 -15.566406 10.3125 -14.515625 C 11.519531 -13.460938 13.160156 -12.9375 15.234375 -12.9375 Z M 6.84375 3.6875 C 6.84375 5.601562 7.644531 7.03125 9.25 7.96875 C 10.863281 8.90625 12.878906 9.375 15.296875 9.375 C 17.671875 9.375 19.578125 8.851562 21.015625 7.8125 C 22.453125 6.78125 23.171875 5.40625 23.171875 3.6875 C 23.171875 2.457031 22.671875 1.390625 21.671875 0.484375 C 20.679688 -0.410156 18.84375 -0.9375 16.15625 -1.09375 C 14.050781 -1.25 12.226562 -1.441406 10.6875 -1.671875 C 9.125 -0.828125 8.09375 0.0820312 7.59375 1.0625 C 7.09375 2.039062 6.84375 2.914062 6.84375 3.6875 Z M 6.84375 3.6875 "/></g></g></g><g fill="#000000" fill-opacity="1"><g transform="translate(33.041154, 57.421664)"><g><path d="M 13.453125 0.6875 C 11.078125 0.6875 9.101562 0.285156 7.53125 -0.515625 C 5.957031 -1.316406 4.785156 -2.390625 4.015625 -3.734375 C 3.253906 -5.078125 2.875 -6.535156 2.875 -8.109375 C 2.875 -11.023438 3.984375 -13.265625 6.203125 -14.828125 C 8.429688 -16.398438 11.460938 -17.1875 15.296875 -17.1875 L 23 -17.1875 L 23 -17.53125 C 23 -20.03125 22.347656 -21.921875 21.046875 -23.203125 C 19.742188 -24.484375 18 -25.125 15.8125 -25.125 C 13.9375 -25.125 12.316406 -24.65625 10.953125 -23.71875 C 9.585938 -22.78125 8.734375 -21.410156 8.390625 -19.609375 L 3.453125 -19.609375 C 3.640625 -21.679688 4.335938 -23.425781 5.546875 -24.84375 C 6.753906 -26.257812 8.257812 -27.335938 10.0625 -28.078125 C 11.863281 -28.828125 13.78125 -29.203125 15.8125 -29.203125 C 19.800781 -29.203125 22.800781 -28.140625 24.8125 -26.015625 C 26.820312 -23.890625 27.828125 -21.0625 27.828125 -17.53125 L 27.828125 0 L 23.515625 0 L 23.234375 -5.125 C 22.421875 -3.507812 21.238281 -2.132812 19.6875 -1 C 18.132812 0.125 16.054688 0.6875 13.453125 0.6875 Z M 14.203125 -3.390625 C 16.046875 -3.390625 17.628906 -3.867188 18.953125 -4.828125 C 20.273438 -5.785156 21.28125 -7.03125 21.96875 -8.5625 C 22.65625 -10.101562 23 -11.710938 23 -13.390625 L 23 -13.453125 L 15.703125 -13.453125 C 12.859375 -13.453125 10.851562 -12.960938 9.6875 -11.984375 C 8.519531 -11.003906 7.9375 -9.789062 7.9375 -8.34375 C 7.9375 -6.84375 8.484375 -5.640625 9.578125 -4.734375 C 10.671875 -3.835938 12.210938 -3.390625 14.203125 -3.390625 Z M 14.203125 -3.390625 "/></g></g></g><g fill="#000000" fill-opacity="1"><g transform="translate(64.148996, 57.421664)"><g><path d="M 3.96875 0 L 3.96875 -41.40625 L 8.796875 -41.40625 L 8.796875 0 Z M 3.96875 0 "/></g></g></g><g fill="#000000" fill-opacity="1"><g transform="translate(76.914137, 57.421664)"><g><path d="M 13.453125 0.6875 C 11.078125 0.6875 9.101562 0.285156 7.53125 -0.515625 C 5.957031 -1.316406 4.785156 -2.390625 4.015625 -3.734375 C 3.253906 -5.078125 2.875 -6.535156 2.875 -8.109375 C 2.875 -11.023438 3.984375 -13.265625 6.203125 -14.828125 C 8.429688 -16.398438 11.460938 -17.1875 15.296875 -17.1875 L 23 -17.1875 L 23 -17.53125 C 23 -20.03125 22.347656 -21.921875 21.046875 -23.203125 C 19.742188 -24.484375 18 -25.125 15.8125 -25.125 C 13.9375 -25.125 12.316406 -24.65625 10.953125 -23.71875 C 9.585938 -22.78125 8.734375 -21.410156 8.390625 -19.609375 L 3.453125 -19.609375 C 3.640625 -21.679688 4.335938 -23.425781 5.546875 -24.84375 C 6.753906 -26.257812 8.257812 -27.335938 10.0625 -28.078125 C 11.863281 -28.828125 13.78125 -29.203125 15.8125 -29.203125 C 19.800781 -29.203125 22.800781 -28.140625 24.8125 -26.015625 C 26.820312 -23.890625 27.828125 -21.0625 27.828125 -17.53125 L 27.828125 0 L 23.515625 0 L 23.234375 -5.125 C 22.421875 -3.507812 21.238281 -2.132812 19.6875 -1 C 18.132812 0.125 16.054688 0.6875 13.453125 0.6875 Z M 14.203125 -3.390625 C 16.046875 -3.390625 17.628906 -3.867188 18.953125 -4.828125 C 20.273438 -5.785156 21.28125 -7.03125 21.96875 -8.5625 C 22.65625 -10.101562 23 -11.710938 23 -13.390625 L 23 -13.453125 L 15.703125 -13.453125 C 12.859375 -13.453125 10.851562 -12.960938 9.6875 -11.984375 C 8.519531 -11.003906 7.9375 -9.789062 7.9375 -8.34375 C 7.9375 -6.84375 8.484375 -5.640625 9.578125 -4.734375 C 10.671875 -3.835938 12.210938 -3.390625 14.203125 -3.390625 Z M 14.203125 -3.390625 "/></g></g></g><g fill="#000000" fill-opacity="1"><g transform="translate(108.02198, 57.421664)"><g><path d="M 1.09375 0 L 10.984375 -14.265625 L 1.09375 -28.515625 L 6.328125 -28.515625 L 14.3125 -16.734375 L 22.375 -28.515625 L 27.546875 -28.515625 L 17.65625 -14.265625 L 27.546875 0 L 22.375 0 L 14.3125 -11.78125 L 6.328125 0 Z M 1.09375 0 "/></g></g></g><g fill="#000000" fill-opacity="1"><g transform="translate(136.657297, 57.421664)"><g><path d="M 7.078125 12.65625 L 14.140625 -2.765625 L 12.484375 -2.765625 L 1.15625 -28.515625 L 6.375 -28.515625 L 15.8125 -6.328125 L 25.8125 -28.515625 L 30.8125 -28.515625 L 12.125 12.65625 Z M 7.078125 12.65625 "/></g></g></g></g></g></svg>